<svg id="Layer_1" data-name="Layer 1" xmlns="http://www.w3.org/2000/svg" viewBox="0 0 340.16 340.16"><defs><style>.cls-1{fill:#fff;}</style></defs><title>clockhand</title><path d="M175.86,57c.22,3,.46,6.09.65,9.14q.83,13.71,1.62,27.42c.74,12.33,5.27,23.34,12.09,33.42,2.11,3.12,1.84,5.13-.7,7.7s-4.83,5.94-7.33,8.83c-3.58,4.13-5.59,8.28-3.11,14,.88,2-.6,5.06-.84,7.64-.3,3.19-1.27,6.63-.49,9.56,2.31,8.69,3.45,17.27,1.41,26.15-.35,1.53-.56,3.65.21,4.8,2.44,3.64,3.29,6.79-.36,10.2-.3.28,1,2.94,2.07,3.91,3.41,3.08,7.65,5.4,10.53,8.87,9,10.92,7,25.89-4.11,33.74-10.95,7.73-27.27,4.85-34.08-6-7.62-12.17-4.17-27.5,8.17-34.18,4.47-2.42,6.67-4.33,3.34-9.32-.81-1.21.23-3.73.59-5.62.5-2.61,1.44-5.15,1.71-7.78.83-8.24,1.6-16.49,2.07-24.76.21-3.53-.36-7.11-.63-10.67-.13-1.81-1-3.88-.46-5.37,4-10.15-3.25-16.1-8.21-22.91a14.52,14.52,0,0,0-2.58-2.35c-2.33-2-2.77-4.22-.65-6.48,14.07-15,14.51-34,15.44-52.89.28-5.71.82-11.4,1.24-17.1Zm-.16,51.12c-4.17,6.33-8.43,12.74-12.56,19.23a2.82,2.82,0,0,0,.07,2.66c3.22,2.8,4.29,9.48,11,6.34a2,2,0,0,1,1.78.48c2,2.12,4,1.82,5.39-.33,1.76-2.75,4.95-6.5,4.18-8.63C183.07,121,179.07,114.6,175.7,108.11ZM168,237.31a8.48,8.48,0,0,0-.42,11.68,8.67,8.67,0,0,0,11.72.33c3.35-3,3.46-8,.27-11.58A8.09,8.09,0,0,0,168,237.31Z"/><path class="cls-1" d="M77.78,214.09a8.07,8.07,0,0,1,8.31,8c0,4.76-3.42,8.41-7.93,8.43a8.66,8.66,0,0,1-8.49-8.08A8.45,8.45,0,0,1,77.78,214.09Z"/></svg>