<svg id="Layer_1" data-name="Layer 1" xmlns="http://www.w3.org/2000/svg" viewBox="0 0 340.16 340.16"><defs><style>.cls-1{fill:#fff;}</style></defs><title>clockhand</title><path class="cls-1" d="M133,257.21a8.25,8.25,0,0,1,11.07,12.22,8.66,8.66,0,0,1-11.7-.55A8.46,8.46,0,0,1,133,257.21Z"/><path class="cls-1" d="M189.62,263.29c-.61,4.47-.8,7.95-1.81,11.16-.17.54-3.92-.06-6-.13a90,90,0,0,1,.75-10.79C182.61,263.15,186.23,263.38,189.62,263.29Z"/><path d="M169,25.49c.15,5.53.37,11.06.43,16.59.09,8.66-.1,17.32.16,26,.37,12,4,23.31,9.33,33.93,2.43,4.81,2.46,8.5-1.21,12.61a76.63,76.63,0,0,0-7.11,10.25c-2.79,4.38-4.06,8.85-1.88,14.17,1,2.33,1,6-.2,8.08-3.64,6.29-2.95,12.82-2.48,19.43.95,13.12,2.21,26.21,2.89,39.34.47,9,.07,18-3.8,26.46-.41.89-1,2.2-.59,2.87,2.16,4.05,2.51,7.77-.51,11.68-.44.58.85,3,1.89,4.09,1.37,1.39,3.36,2.14,4.95,3.33,8.22,6.15,10.06,16.12,4.74,25.39-4.25,7.39-15,10.61-23.23,7-7.74-3.42-12.15-14.09-9.55-23,1.76-6,5.37-10.19,11.43-12.22,3.9-1.31,5-4.35,2.38-7.55-2-2.51-1.82-4.06.18-6.41a6.27,6.27,0,0,0,1-5.21c-3.79-10.73-3.44-21.53-1.63-32.55,2.19-13.31,3.95-26.69,5.84-40,.33-2.31,1.17-4.92.44-6.92-2.29-6.3-3.28-12.4-.58-18.84.41-1-.3-2.64-.87-3.79-2.89-5.8-6.12-11.44-8.74-17.35-.94-2.13-1.56-5.5-.52-7.21,11.38-18.77,12.74-39.71,13.61-60.75.27-6.44,0-12.91,0-19.36ZM166.16,83.2c-3,7.41-6.16,14.69-9,22.08-1.49,3.88,2,12.83,5.32,13.25,2.46.31,6.19,0,7.44-1.52,2.6-3.23,7-6.34,5-11.6C172.14,98,169.13,90.7,166.16,83.2Zm-.76,180.33c-3.4.09-7-.13-7.08.24a90,90,0,0,0-.76,10.79c2.1.08,5.86.67,6,.14C164.6,271.48,164.79,268,165.4,263.53Z"/></svg>