<?xml version="1.0" encoding="UTF-8" standalone="no"?>
<!DOCTYPE svg PUBLIC "-//W3C//DTD SVG 1.1//EN" "http://www.w3.org/Graphics/SVG/1.1/DTD/svg11.dtd">
<svg version="1.1" xmlns="http://www.w3.org/2000/svg" xmlns:xlink="http://www.w3.org/1999/xlink" preserveAspectRatio="xMidYMid meet" viewBox="0 0 640 640" width="640" height="640"><defs><path d="M330.91 107.67L330.94 108.09L330.97 108.52L331 108.94L331.03 109.37L331.06 109.79L331.09 110.22L331.13 110.65L331.16 111.08L331.19 111.5L331.22 111.93L331.25 112.36L331.29 112.79L331.32 113.22L331.35 113.65L331.38 114.08L331.41 114.51L331.44 114.94L331.48 115.38L331.51 115.81L331.54 116.24L331.57 116.67L331.6 117.1L331.63 117.53L331.66 117.97L331.69 118.4L331.72 118.83L331.75 119.26L331.78 119.69L331.81 120.13L331.84 120.56L331.87 120.99L331.9 121.42L331.93 121.85L331.96 122.29L331.99 122.72L332.02 123.15L332.04 123.58L332.07 124.01L332.1 124.44L332.21 126.37L332.33 128.27L332.44 130.15L332.55 132.01L332.66 133.85L332.77 135.66L332.88 137.45L332.99 139.22L333.09 140.95L333.19 142.66L333.29 144.34L333.39 145.98L333.48 147.6L333.58 149.19L333.67 150.74L333.76 152.26L333.84 153.74L333.93 155.19L334.01 156.6L334.09 157.97L334.17 159.31L334.25 160.6L334.32 161.86L334.39 163.07L334.46 164.24L334.52 165.37L334.59 166.45L334.65 167.49L334.71 168.48L334.76 169.42L334.81 170.31L334.86 171.16L334.91 171.95L334.95 172.7L334.99 173.39L335.03 174.03L335.06 174.61L335.09 175.14L335.12 175.61L335.15 176.03L335.26 177.77L335.41 179.49L335.58 181.21L335.77 182.92L336 184.61L336.24 186.3L336.52 187.99L336.81 189.66L337.14 191.32L337.48 192.97L337.85 194.62L338.25 196.26L338.67 197.89L339.11 199.51L339.57 201.12L340.06 202.72L340.57 204.32L341.1 205.91L341.65 207.49L342.23 209.06L342.83 210.62L343.44 212.18L344.08 213.72L344.74 215.26L345.42 216.8L346.12 218.32L346.84 219.84L347.58 221.35L348.34 222.85L349.12 224.35L349.92 225.83L350.73 227.31L351.57 228.79L352.42 230.25L353.29 231.71L354.18 233.17L355.08 234.61L356 236.05L356.94 237.48L357.89 238.91L358.18 239.35L358.45 239.77L358.71 240.2L358.95 240.61L359.17 241.02L359.38 241.42L359.57 241.82L359.74 242.21L359.89 242.59L360.03 242.97L360.16 243.34L360.26 243.71L360.35 244.08L360.42 244.44L360.48 244.8L360.52 245.15L360.54 245.5L360.55 245.85L360.54 246.2L360.52 246.54L360.47 246.88L360.41 247.22L360.34 247.56L360.25 247.9L360.14 248.24L360.02 248.57L359.87 248.91L359.72 249.24L359.55 249.58L359.36 249.92L359.15 250.26L358.93 250.6L358.69 250.94L358.44 251.28L358.17 251.63L357.88 251.97L357.58 252.32L357.26 252.68L356.93 253.04L356.58 253.4L356.22 253.76L355.86 254.13L355.51 254.51L355.16 254.89L354.8 255.28L354.45 255.67L354.11 256.06L353.76 256.46L353.41 256.86L353.07 257.27L352.72 257.68L352.38 258.09L352.04 258.5L351.69 258.92L351.35 259.34L351.01 259.77L350.67 260.19L350.33 260.62L349.99 261.05L349.65 261.48L349.31 261.91L348.97 262.34L348.63 262.77L348.29 263.21L347.96 263.64L347.62 264.07L347.28 264.5L346.93 264.94L346.59 265.37L346.25 265.8L345.91 266.23L345.57 266.66L345.22 267.08L344.88 267.51L344.53 267.93L344.18 268.35L343.84 268.77L343.49 269.19L343.14 269.6L342.78 270.01L342.29 270.59L341.8 271.18L341.32 271.76L340.86 272.34L340.41 272.93L339.97 273.52L339.55 274.11L339.14 274.7L338.75 275.29L338.37 275.89L338.01 276.49L337.67 277.09L337.34 277.7L337.03 278.31L336.74 278.92L336.47 279.54L336.22 280.16L335.99 280.79L335.77 281.42L335.58 282.06L335.41 282.7L335.27 283.35L335.14 284.01L335.04 284.67L334.96 285.34L334.9 286.01L334.87 286.69L334.87 287.38L334.89 288.08L334.93 288.79L335 289.5L335.1 290.22L335.23 290.96L335.39 291.7L335.57 292.45L335.78 293.21L336.02 293.98L336.3 294.76L336.6 295.55L336.93 296.35L337.05 296.64L337.15 296.93L337.23 297.23L337.3 297.54L337.36 297.85L337.4 298.17L337.43 298.49L337.45 298.82L337.45 299.16L337.45 299.5L337.43 299.85L337.41 300.2L337.37 300.55L337.33 300.91L337.28 301.27L337.22 301.64L337.16 302.01L337.09 302.38L337.01 302.75L336.93 303.13L336.85 303.51L336.76 303.89L336.67 304.27L336.58 304.65L336.49 305.04L336.39 305.42L336.3 305.8L336.21 306.19L336.11 306.58L336.02 306.96L335.93 307.34L335.85 307.73L335.77 308.11L335.69 308.49L335.62 308.87L335.55 309.24L335.49 309.62L335.44 309.99L335.39 310.36L335.35 310.72L335.31 311.18L335.26 311.63L335.21 312.08L335.15 312.54L335.09 312.99L335.03 313.45L334.97 313.91L334.9 314.37L334.83 314.83L334.76 315.29L334.7 315.75L334.63 316.21L334.56 316.68L334.49 317.14L334.43 317.6L334.36 318.06L334.3 318.52L334.24 318.98L334.18 319.44L334.13 319.9L334.08 320.36L334.04 320.82L333.99 321.27L333.96 321.73L333.93 322.18L333.9 322.63L333.89 323.08L333.88 323.53L333.87 323.98L333.88 324.42L333.89 324.86L333.91 325.3L333.94 325.74L333.98 326.17L334.03 326.6L334.08 327.03L334.15 327.46L334.23 327.88L334.33 328.3L334.43 328.71L334.75 329.94L335.07 331.16L335.37 332.39L335.66 333.61L335.95 334.83L336.23 336.06L336.49 337.28L336.74 338.5L336.99 339.72L337.22 340.95L337.44 342.17L337.65 343.39L337.84 344.61L338.02 345.84L338.19 347.06L338.35 348.28L338.49 349.5L338.62 350.73L338.73 351.95L338.83 353.18L338.91 354.4L338.98 355.63L339.03 356.86L339.06 358.08L339.08 359.31L339.08 360.54L339.06 361.77L339.02 363.01L338.97 364.24L338.9 365.47L338.81 366.71L338.7 367.95L338.57 369.19L338.42 370.43L338.25 371.67L338.06 372.92L337.85 374.16L337.62 375.41L337.36 376.66L337.08 377.91L337.03 378.13L336.99 378.35L336.94 378.58L336.9 378.81L336.85 379.04L336.81 379.27L336.77 379.51L336.73 379.75L336.7 379.99L336.66 380.23L336.63 380.48L336.6 380.72L336.58 380.97L336.56 381.22L336.54 381.46L336.52 381.71L336.51 381.96L336.5 382.2L336.49 382.45L336.49 382.7L336.49 382.94L336.5 383.18L336.51 383.42L336.52 383.66L336.54 383.89L336.57 384.13L336.6 384.36L336.63 384.58L336.67 384.8L336.71 385.02L336.76 385.24L336.82 385.45L336.88 385.65L336.95 385.86L337.02 386.05L337.1 386.24L337.18 386.43L337.28 386.6L337.37 386.78L337.48 386.94L337.82 387.45L338.14 387.96L338.46 388.47L338.76 388.97L339.05 389.47L339.32 389.97L339.58 390.46L339.83 390.95L340.06 391.44L340.28 391.93L340.47 392.41L340.65 392.9L340.82 393.38L340.97 393.86L341.09 394.33L341.2 394.81L341.29 395.28L341.36 395.76L341.41 396.23L341.44 396.7L341.44 397.17L341.43 397.64L341.39 398.11L341.33 398.58L341.24 399.05L341.14 399.52L341 399.98L340.84 400.45L340.66 400.92L340.45 401.39L340.21 401.86L339.95 402.33L339.66 402.8L339.34 403.27L338.99 403.75L338.61 404.22L338.21 404.7L337.77 405.17L337.3 405.65L336.8 406.13L336.76 406.18L336.74 406.25L336.72 406.32L336.72 406.42L336.72 406.53L336.74 406.65L336.76 406.78L336.8 406.93L336.84 407.08L336.89 407.25L336.95 407.42L337.01 407.61L337.09 407.8L337.17 408L337.25 408.21L337.35 408.43L337.45 408.64L337.55 408.87L337.67 409.09L337.78 409.33L337.9 409.56L338.03 409.79L338.16 410.03L338.29 410.26L338.43 410.5L338.57 410.73L338.71 410.97L338.86 411.2L339.01 411.42L339.16 411.64L339.31 411.86L339.46 412.07L339.62 412.28L339.77 412.48L339.93 412.67L340.08 412.85L340.24 413.03L340.39 413.19L340.54 413.35L340.7 413.49L341.18 413.92L341.67 414.35L342.16 414.77L342.66 415.19L343.17 415.6L343.67 416.01L344.19 416.42L344.7 416.82L345.22 417.23L345.74 417.62L346.26 418.02L346.78 418.42L347.3 418.81L347.83 419.2L348.36 419.6L348.88 419.99L349.41 420.38L349.93 420.77L350.45 421.17L350.98 421.56L351.5 421.95L352.01 422.35L352.53 422.75L353.04 423.15L353.55 423.56L354.05 423.96L354.56 424.38L355.05 424.79L355.54 425.21L356.03 425.63L356.51 426.06L356.98 426.49L357.45 426.93L357.91 427.37L358.36 427.82L358.81 428.28L359.25 428.74L359.68 429.22L360.1 429.69L360.51 430.18L361.74 431.73L362.89 433.32L363.97 434.92L364.97 436.55L365.89 438.2L366.74 439.87L367.52 441.55L368.21 443.25L368.84 444.96L369.38 446.69L369.86 448.42L370.26 450.16L370.58 451.9L370.83 453.65L371.01 455.4L371.12 457.15L371.16 458.89L371.12 460.63L371.01 462.36L370.83 464.09L370.58 465.8L370.26 467.5L369.87 469.18L369.4 470.85L368.87 472.5L368.27 474.13L367.6 475.74L366.86 477.32L366.06 478.87L365.18 480.4L364.24 481.89L363.23 483.36L362.16 484.79L361.01 486.18L359.8 487.53L358.53 488.85L357.19 490.12L355.78 491.35L354.31 492.53L352.78 493.66L351.21 494.71L349.61 495.69L347.98 496.6L346.32 497.43L344.63 498.19L342.92 498.87L341.18 499.49L339.43 500.03L337.65 500.5L335.87 500.9L334.07 501.23L332.26 501.49L330.45 501.68L328.63 501.81L326.81 501.86L324.99 501.85L323.18 501.77L321.38 501.62L319.58 501.4L317.79 501.12L316.02 500.78L314.27 500.37L312.54 499.89L310.83 499.35L309.14 498.75L307.48 498.08L305.86 497.35L304.26 496.56L302.7 495.71L301.18 494.79L299.7 493.82L298.27 492.78L296.88 491.68L295.53 490.53L294.24 489.31L293.01 488.04L291.83 486.71L290.71 485.32L289.65 483.87L288.65 482.37L287.62 480.64L286.66 478.89L285.78 477.13L284.97 475.35L284.25 473.55L283.6 471.74L283.02 469.92L282.52 468.1L282.09 466.27L281.74 464.43L281.47 462.59L281.26 460.76L281.14 458.92L281.08 457.1L281.1 455.27L281.19 453.46L281.35 451.66L281.58 449.87L281.88 448.1L282.26 446.34L282.7 444.61L283.22 442.89L283.8 441.2L284.46 439.53L285.18 437.9L285.97 436.29L286.83 434.71L287.76 433.17L288.75 431.66L289.81 430.19L290.94 428.76L292.14 427.38L293.4 426.04L294.72 424.74L296.11 423.49L297.57 422.3L299.09 421.16L300.67 420.07L302.32 419.03L304.03 418.06L304.65 417.72L305.26 417.39L305.84 417.05L306.42 416.72L306.97 416.39L307.5 416.06L308.02 415.72L308.51 415.39L308.98 415.06L309.44 414.72L309.87 414.38L310.28 414.04L310.66 413.69L311.02 413.34L311.36 412.99L311.68 412.63L311.96 412.26L312.23 411.88L312.46 411.5L312.67 411.11L312.85 410.71L313.01 410.3L313.13 409.88L313.23 409.44L313.29 409L313.33 408.54L313.33 408.08L313.31 407.59L313.25 407.1L313.15 406.59L313.03 406.06L312.87 405.52L312.68 404.96L312.45 404.38L312.18 403.79L311.88 403.18L311.55 402.54L311.17 401.89L310.76 401.22L310.31 400.53L310.2 400.35L310.11 400.17L310.02 399.97L309.95 399.77L309.89 399.56L309.84 399.35L309.8 399.12L309.78 398.89L309.76 398.66L309.75 398.41L309.74 398.17L309.75 397.91L309.76 397.65L309.79 397.39L309.81 397.12L309.85 396.85L309.89 396.57L309.93 396.29L309.98 396.01L310.04 395.72L310.1 395.43L310.16 395.14L310.23 394.85L310.3 394.56L310.37 394.26L310.44 393.97L310.52 393.67L310.59 393.37L310.67 393.08L310.75 392.79L310.82 392.49L310.9 392.2L310.97 391.91L311.05 391.62L311.12 391.33L311.18 391.05L311.25 390.77L311.31 390.49L311.37 390.22L311.42 389.95L311.49 389.58L311.57 389.22L311.65 388.85L311.73 388.48L311.81 388.12L311.89 387.75L311.98 387.39L312.07 387.02L312.16 386.65L312.25 386.29L312.34 385.93L312.43 385.56L312.53 385.2L312.62 384.83L312.72 384.47L312.81 384.1L312.91 383.74L313 383.38L313.1 383.01L313.19 382.65L313.28 382.28L313.38 381.92L313.47 381.56L313.56 381.19L313.64 380.83L313.73 380.46L313.81 380.1L313.9 379.73L313.98 379.37L314.05 379L314.13 378.63L314.2 378.27L314.27 377.9L314.33 377.53L314.39 377.16L314.45 376.79L314.5 376.43L314.55 376.06L314.6 375.69L314.64 375.32L314.75 374.15L314.87 372.99L314.99 371.83L315.1 370.66L315.22 369.5L315.33 368.34L315.44 367.17L315.56 366.01L315.67 364.85L315.78 363.68L315.89 362.52L316 361.36L316.11 360.19L316.22 359.03L316.32 357.87L316.43 356.7L316.53 355.54L316.64 354.37L316.74 353.21L316.84 352.04L316.94 350.88L317.04 349.71L317.13 348.55L317.23 347.38L317.32 346.22L317.42 345.05L317.51 343.89L317.6 342.72L317.68 341.56L317.77 340.39L317.85 339.23L317.94 338.06L318.02 336.9L318.1 335.73L318.18 334.56L318.25 333.4L318.32 332.23L318.4 331.06L318.47 329.9L318.53 328.73L318.56 328.23L318.58 327.73L318.6 327.23L318.61 326.73L318.62 326.24L318.62 325.74L318.62 325.24L318.61 324.73L318.6 324.23L318.59 323.73L318.57 323.23L318.55 322.73L318.52 322.23L318.5 321.73L318.46 321.23L318.43 320.72L318.4 320.22L318.36 319.72L318.32 319.22L318.28 318.71L318.24 318.21L318.19 317.71L318.14 317.21L318.1 316.7L318.05 316.2L318 315.7L317.95 315.19L317.9 314.69L317.85 314.19L317.8 313.68L317.75 313.18L317.7 312.68L317.65 312.17L317.61 311.67L317.56 311.17L317.51 310.67L317.47 310.16L317.43 309.66L317.39 309.16L317.35 308.65L317.33 308.4L317.3 308.14L317.27 307.88L317.24 307.62L317.2 307.36L317.16 307.09L317.11 306.83L317.07 306.57L317.02 306.3L316.97 306.03L316.91 305.77L316.86 305.5L316.81 305.23L316.75 304.97L316.7 304.7L316.64 304.43L316.59 304.17L316.54 303.9L316.49 303.64L316.44 303.38L316.4 303.12L316.35 302.85L316.31 302.6L316.28 302.34L316.24 302.08L316.22 301.83L316.19 301.58L316.17 301.33L316.16 301.08L316.15 300.83L316.15 300.59L316.16 300.35L316.17 300.11L316.19 299.88L316.22 299.65L316.25 299.42L316.3 299.2L316.35 298.98L316.41 298.76L316.48 298.55L317.01 297.13L317.45 295.74L317.83 294.38L318.13 293.05L318.36 291.74L318.53 290.46L318.62 289.2L318.66 287.97L318.64 286.75L318.56 285.56L318.42 284.39L318.23 283.24L317.99 282.11L317.7 281L317.36 279.9L316.98 278.82L316.56 277.75L316.1 276.7L315.61 275.67L315.08 274.64L314.52 273.63L313.93 272.63L313.31 271.64L312.67 270.65L312.01 269.68L311.32 268.71L310.62 267.75L309.91 266.8L309.18 265.85L308.44 264.9L307.7 263.96L306.95 263.02L306.19 262.08L305.44 261.14L304.69 260.19L303.94 259.25L303.2 258.31L302.46 257.36L301.74 256.4L301.03 255.45L300.93 255.32L300.82 255.2L300.71 255.08L300.6 254.95L300.49 254.83L300.38 254.71L300.26 254.59L300.15 254.47L300.04 254.35L299.92 254.23L299.81 254.12L299.69 254L299.58 253.88L299.46 253.77L299.34 253.65L299.22 253.54L299.1 253.43L298.98 253.31L298.86 253.2L298.74 253.09L298.62 252.98L298.5 252.87L298.37 252.76L298.25 252.65L298.12 252.55L298 252.44L297.87 252.33L297.75 252.23L297.62 252.12L297.49 252.02L297.36 251.92L297.24 251.81L297.11 251.71L296.98 251.61L296.84 251.51L296.71 251.41L296.58 251.32L296.45 251.22L296.31 251.12L296.18 251.03L295.86 250.74L295.55 250.46L295.25 250.17L294.97 249.88L294.71 249.6L294.45 249.31L294.21 249.01L293.99 248.72L293.78 248.43L293.58 248.13L293.4 247.83L293.23 247.54L293.08 247.24L292.94 246.94L292.82 246.64L292.71 246.33L292.61 246.03L292.54 245.72L292.48 245.42L292.43 245.11L292.4 244.81L292.38 244.5L292.39 244.19L292.4 243.88L292.44 243.57L292.49 243.26L292.55 242.94L292.63 242.63L292.73 242.32L292.85 242L292.98 241.69L293.13 241.37L293.3 241.06L293.48 240.74L293.69 240.42L293.9 240.11L294.14 239.79L294.4 239.47L294.67 239.15L294.96 238.83L296.9 236.7L298.74 234.54L300.49 232.36L302.16 230.15L303.73 227.91L305.23 225.65L306.64 223.37L307.98 221.06L309.23 218.73L310.42 216.38L311.53 214L312.58 211.61L313.55 209.2L314.47 206.77L315.32 204.32L316.12 201.85L316.85 199.37L317.54 196.87L318.17 194.35L318.75 191.82L319.29 189.28L319.78 186.72L320.24 184.16L320.65 181.58L321.03 178.99L321.37 176.39L321.68 173.78L321.96 171.16L322.22 168.53L322.45 165.9L322.66 163.26L322.86 160.61L323.03 157.96L323.19 155.3L323.34 152.65L323.48 149.98L323.62 147.32L323.75 144.65L323.88 141.99L324.01 139.32L324.05 138.52L324.09 137.71L324.13 136.91L324.18 136.1L324.23 135.3L324.28 134.49L324.33 133.69L324.38 132.88L324.43 132.08L324.48 131.27L324.54 130.47L324.59 129.66L324.65 128.86L324.71 128.05L324.77 127.25L324.83 126.45L324.89 125.64L324.95 124.84L325.01 124.03L325.08 123.23L325.14 122.43L325.2 121.62L325.27 120.82L325.33 120.01L325.39 119.21L325.46 118.41L325.52 117.6L325.59 116.8L325.65 115.99L325.72 115.19L325.78 114.39L325.85 113.58L325.91 112.78L325.97 111.97L326.04 111.17L326.1 110.37L326.16 109.56L326.22 108.76L326.28 107.95L326.34 107.15L330.87 107.24L330.91 107.67ZM324.25 442.48L323.04 442.71L321.84 443.05L320.67 443.49L319.53 444.02L318.43 444.66L317.37 445.4L316.36 446.24L316.33 446.27L316.3 446.29L316.27 446.32L316.24 446.35L316.21 446.37L316.2 446.39L316.18 446.4L316.17 446.41L316.16 446.42L316.14 446.44L316.13 446.45L316.11 446.46L316.1 446.48L316.09 446.49L315.17 447.46L314.36 448.48L313.64 449.56L313.01 450.67L312.48 451.83L312.05 453.01L311.72 454.23L311.48 455.45L311.34 456.7L311.29 457.95L311.34 459.19L311.49 460.44L311.74 461.67L312.09 462.88L312.53 464.07L313.07 465.23L313.72 466.35L314.46 467.44L315.3 468.47L316.28 469.35L317.32 470.14L318.41 470.84L319.54 471.44L320.7 471.95L321.89 472.37L323.1 472.68L324.33 472.91L325.58 473.04L326.83 473.08L328.07 473.02L329.32 472.86L330.55 472.61L331.76 472.26L332.95 471.82L334.11 471.28L335.23 470.65L336.31 469.92L337.35 469.09L338.29 468.17L339.13 467.19L339.88 466.16L340.52 465.08L341.05 463.97L341.49 462.82L341.83 461.64L342.06 460.44L342.19 459.22L342.22 457.99L342.14 456.75L341.97 455.51L341.69 454.28L341.31 453.06L340.82 451.85L340.23 450.67L339.54 449.51L338.75 448.38L337.86 447.3L336.93 446.36L335.95 445.52L334.91 444.78L333.83 444.13L332.71 443.58L331.55 443.13L330.36 442.78L329.16 442.52L327.94 442.36L326.71 442.3L325.48 442.34L324.25 442.48ZM329 205.79L328.22 206.99L327.43 208.18L326.64 209.38L325.85 210.58L325.06 211.78L324.27 212.98L323.48 214.18L322.69 215.38L321.9 216.58L321.1 217.78L320.31 218.99L319.52 220.19L318.73 221.4L317.94 222.61L317.15 223.81L316.36 225.02L315.57 226.23L314.78 227.44L313.99 228.66L313.2 229.87L312.42 231.08L311.63 232.3L310.85 233.51L310.06 234.73L309.28 235.95L308.5 237.16L307.72 238.38L306.94 239.6L306.87 239.76L306.79 239.93L306.73 240.09L306.67 240.25L306.62 240.42L306.57 240.59L306.52 240.75L306.49 240.92L306.45 241.09L306.43 241.26L306.41 241.44L306.39 241.61L306.38 241.78L306.38 241.95L306.38 242.12L306.39 242.3L306.4 242.47L306.42 242.64L306.44 242.81L306.47 242.98L306.51 243.15L306.55 243.32L306.6 243.48L306.65 243.65L306.7 243.81L306.77 243.98L306.84 244.14L306.91 244.3L306.99 244.45L307.07 244.61L307.67 245.16L308.24 245.75L308.79 246.38L309.32 247.05L309.83 247.73L310.34 248.44L310.84 249.16L311.34 249.89L311.83 250.63L312.33 251.36L312.83 252.08L313.34 252.79L313.86 253.47L314.4 254.13L314.96 254.76L315.54 255.36L316.14 255.91L316.78 256.41L317.44 256.86L318.14 257.24L318.88 257.56L319.66 257.81L320.48 257.98L321.35 258.07L322.27 258.07L323.25 257.98L324.29 257.78L325.38 257.48L326.54 257.07L327.77 256.54L327.89 256.51L328.01 256.49L328.13 256.48L328.25 256.46L328.37 256.46L328.49 256.45L328.61 256.45L328.73 256.45L328.85 256.46L328.97 256.47L329.09 256.49L329.21 256.5L329.32 256.53L329.44 256.55L329.56 256.58L329.67 256.61L329.78 256.65L329.9 256.69L330.01 256.73L330.12 256.78L330.22 256.83L330.33 256.89L330.44 256.94L330.54 257L330.64 257.07L330.74 257.14L330.84 257.21L330.93 257.28L331.03 257.36L331.12 257.44L331.5 257.82L331.87 258.18L332.25 258.5L332.62 258.8L333 259.06L333.37 259.3L333.74 259.5L334.11 259.68L334.48 259.83L334.84 259.95L335.2 260.05L335.56 260.11L335.92 260.15L336.27 260.16L336.62 260.14L336.97 260.1L337.31 260.03L337.64 259.94L337.98 259.81L338.31 259.67L338.63 259.49L338.95 259.29L339.26 259.07L339.56 258.82L339.86 258.55L340.16 258.25L340.44 257.93L340.72 257.58L341 257.21L341.26 256.82L341.6 256.3L341.96 255.76L342.32 255.22L342.7 254.66L343.09 254.1L343.49 253.53L343.89 252.95L344.29 252.37L344.69 251.79L345.09 251.2L345.49 250.61L345.88 250.02L346.26 249.44L346.62 248.85L346.98 248.26L347.32 247.68L347.64 247.11L347.94 246.54L348.21 245.98L348.47 245.42L348.69 244.88L348.89 244.35L349.05 243.82L349.18 243.31L349.28 242.82L349.33 242.34L349.35 241.87L349.32 241.42L349.25 240.99L349.13 240.58L348.65 239.29L348.15 238.01L347.64 236.73L347.11 235.46L346.56 234.19L346.01 232.93L345.43 231.67L344.85 230.41L344.25 229.16L343.64 227.91L343.02 226.67L342.4 225.43L341.76 224.19L341.12 222.96L340.47 221.73L339.82 220.5L339.16 219.27L338.49 218.04L337.83 216.82L337.16 215.6L336.49 214.38L335.82 213.16L335.15 211.94L334.49 210.72L333.82 209.5L333.16 208.28L332.51 207.06L331.86 205.85L331.21 204.63L330.57 203.41L329.79 204.6L329 205.79Z" id="aw1gXEvC1"></path></defs><g><g><g><use xlink:href="#aw1gXEvC1" opacity="1" fill="#000000" fill-opacity="1"></use><g><use xlink:href="#aw1gXEvC1" opacity="1" fill-opacity="0" stroke="#000000" stroke-width="1" stroke-opacity="0"></use></g></g></g></g></svg>