<?xml version="1.0" encoding="UTF-8" standalone="no"?>
<!DOCTYPE svg PUBLIC "-//W3C//DTD SVG 1.1//EN" "http://www.w3.org/Graphics/SVG/1.1/DTD/svg11.dtd">
<svg version="1.1" xmlns="http://www.w3.org/2000/svg" xmlns:xlink="http://www.w3.org/1999/xlink" preserveAspectRatio="xMidYMid meet" viewBox="0 0 640 640" width="640" height="640"><defs><path d="M282.97 45.14L282.99 45.92L283.02 46.7L283.04 47.48L283.06 48.26L283.09 49.04L283.11 49.82L283.13 50.6L283.16 51.38L283.18 52.16L283.21 52.94L283.23 53.72L283.25 54.5L283.28 55.28L283.3 56.06L283.33 56.84L283.35 57.62L283.37 58.41L283.4 59.19L283.42 59.97L283.44 60.75L283.46 61.53L283.48 62.31L283.51 63.09L283.53 63.87L283.55 64.65L283.57 65.43L283.58 66.21L283.6 66.99L283.62 67.77L283.64 68.55L283.65 69.33L283.67 70.11L283.68 70.89L283.69 71.67L283.71 72.45L283.72 73.23L283.73 74.01L283.74 74.79L283.75 76.01L283.76 77.24L283.77 78.46L283.77 79.68L283.78 80.9L283.78 82.12L283.78 83.35L283.79 84.57L283.79 85.79L283.79 87.01L283.79 88.24L283.78 89.46L283.78 90.68L283.78 91.9L283.78 93.12L283.78 94.35L283.77 95.57L283.77 96.79L283.77 98.01L283.77 99.24L283.77 100.46L283.77 101.68L283.77 102.91L283.77 104.13L283.77 105.35L283.78 106.57L283.78 107.8L283.79 109.02L283.8 110.24L283.81 111.47L283.82 112.69L283.83 113.92L283.85 115.14L283.87 116.36L283.89 117.59L283.92 118.81L283.94 120.04L283.97 121.26L284 122.49L284.04 123.71L284.1 125.4L284.19 127.09L284.3 128.77L284.43 130.44L284.58 132.12L284.76 133.78L284.95 135.44L285.17 137.1L285.41 138.75L285.66 140.4L285.94 142.04L286.24 143.68L286.56 145.31L286.9 146.94L287.25 148.56L287.63 150.18L288.02 151.79L288.44 153.4L288.87 155L289.32 156.6L289.78 158.2L290.26 159.79L290.76 161.37L291.28 162.95L291.81 164.52L292.36 166.09L292.93 167.66L293.51 169.21L294.11 170.77L294.72 172.32L295.34 173.86L295.98 175.4L296.64 176.94L297.31 178.47L297.99 179.99L298.68 181.52L299.39 183.03L300.11 184.54L300.85 186.05L301.59 187.55L301.93 188.22L302.24 188.89L302.54 189.55L302.83 190.2L303.09 190.85L303.34 191.49L303.56 192.12L303.77 192.75L303.96 193.37L304.14 193.99L304.29 194.6L304.42 195.2L304.53 195.8L304.63 196.4L304.7 196.99L304.75 197.58L304.79 198.17L304.8 198.75L304.79 199.33L304.76 199.91L304.71 200.48L304.63 201.05L304.53 201.62L304.42 202.19L304.28 202.75L304.11 203.32L303.93 203.89L303.72 204.45L303.48 205.01L303.23 205.58L302.95 206.14L302.64 206.71L302.31 207.27L301.96 207.84L301.58 208.41L301.18 208.97L300.75 209.55L300.3 210.12L299.82 210.7L299.32 211.27L298.94 211.73L298.57 212.18L298.2 212.64L297.84 213.1L297.47 213.56L297.11 214.02L296.75 214.49L296.39 214.95L296.03 215.42L295.68 215.89L295.33 216.36L294.97 216.83L294.62 217.3L294.28 217.77L293.93 218.25L293.59 218.72L293.25 219.2L292.91 219.68L292.57 220.16L292.23 220.64L291.9 221.13L291.57 221.61L291.24 222.1L290.91 222.58L290.58 223.07L290.26 223.56L289.94 224.05L289.62 224.55L289.3 225.04L288.99 225.54L288.67 226.03L288.36 226.53L288.05 227.03L287.74 227.53L287.44 228.03L287.13 228.53L286.83 229.04L286.53 229.54L286.23 230.05L285.94 230.56L285.55 231.18L285.17 231.8L284.81 232.42L284.45 233.04L284.11 233.66L283.78 234.28L283.46 234.91L283.16 235.54L282.87 236.16L282.59 236.79L282.33 237.43L282.08 238.06L281.85 238.7L281.63 239.34L281.43 239.98L281.24 240.62L281.07 241.27L280.92 241.92L280.78 242.57L280.66 243.23L280.56 243.89L280.48 244.55L280.41 245.21L280.36 245.88L280.33 246.56L280.32 247.24L280.33 247.92L280.36 248.6L280.41 249.29L280.49 249.99L280.58 250.69L280.69 251.39L280.82 252.1L280.98 252.82L281.16 253.54L281.36 254.26L281.59 254.99L281.83 255.73L282.11 256.47L282.4 257.22L282.54 257.55L282.67 257.9L282.79 258.25L282.91 258.6L283.02 258.97L283.12 259.34L283.21 259.72L283.3 260.11L283.38 260.5L283.45 260.89L283.52 261.29L283.58 261.7L283.63 262.1L283.67 262.51L283.7 262.92L283.73 263.34L283.75 263.75L283.76 264.17L283.77 264.58L283.77 265L283.75 265.41L283.74 265.82L283.71 266.23L283.67 266.64L283.63 267.05L283.58 267.45L283.52 267.85L283.46 268.24L283.38 268.63L283.3 269.01L283.21 269.39L283.11 269.76L283 270.12L282.89 270.48L282.77 270.82L282.63 271.16L282.49 271.49L282.35 271.81L282.19 272.12L282.02 272.42L281.53 273.31L281.06 274.2L280.62 275.09L280.21 275.99L279.82 276.88L279.46 277.78L279.13 278.67L278.82 279.57L278.54 280.47L278.28 281.38L278.04 282.28L277.83 283.19L277.63 284.09L277.46 285L277.31 285.91L277.17 286.82L277.05 287.73L276.95 288.64L276.86 289.56L276.79 290.47L276.74 291.39L276.69 292.31L276.66 293.23L276.65 294.15L276.64 295.07L276.65 295.99L276.66 296.91L276.68 297.83L276.71 298.76L276.75 299.68L276.8 300.61L276.85 301.54L276.9 302.46L276.96 303.39L277.02 304.32L277.09 305.25L277.16 306.18L277.22 307.11L277.29 308.05L277.36 308.98L277.49 310.83L277.63 312.68L277.77 314.53L277.91 316.38L278.05 318.23L278.2 320.08L278.34 321.93L278.49 323.78L278.63 325.63L278.78 327.48L278.93 329.33L279.08 331.18L279.23 333.03L279.38 334.88L279.53 336.73L279.68 338.58L279.83 340.43L279.97 342.28L280.12 344.13L280.27 345.98L280.41 347.83L280.56 349.68L280.7 351.53L280.84 353.38L280.98 355.23L281.12 357.08L281.26 358.93L281.4 360.78L281.53 362.63L281.66 364.48L281.79 366.33L281.91 368.18L282.03 370.03L282.15 371.88L282.27 373.73L282.38 375.59L282.49 377.44L282.6 379.29L282.7 381.14L282.8 383L282.86 384.27L282.92 385.54L282.97 386.8L283.01 388.07L283.04 389.34L283.07 390.61L283.08 391.88L283.09 393.15L283.09 394.41L283.08 395.68L283.05 396.94L283.02 398.21L282.97 399.47L282.91 400.73L282.84 401.99L282.76 403.25L282.66 404.51L282.55 405.76L282.42 407.02L282.28 408.27L282.13 409.52L281.96 410.77L281.77 412.01L281.56 413.26L281.34 414.5L281.1 415.74L280.84 416.97L280.57 418.21L280.27 419.44L279.96 420.67L279.63 421.89L279.27 423.11L278.9 424.33L278.5 425.55L278.08 426.76L277.64 427.97L277.18 429.18L276.69 430.38L276.18 431.58L275.65 432.78L275.59 432.91L275.53 433.04L275.47 433.17L275.41 433.3L275.35 433.44L275.28 433.58L275.22 433.72L275.16 433.86L275.1 434.01L275.04 434.15L274.98 434.3L274.92 434.45L274.86 434.59L274.81 434.74L274.75 434.89L274.7 435.04L274.65 435.19L274.6 435.34L274.56 435.49L274.51 435.63L274.47 435.78L274.44 435.93L274.4 436.07L274.37 436.22L274.35 436.36L274.32 436.5L274.3 436.64L274.29 436.77L274.28 436.91L274.28 437.04L274.28 437.17L274.28 437.29L274.29 437.42L274.31 437.54L274.33 437.65L274.36 437.77L274.39 437.88L274.43 437.98L274.48 438.08L274.54 438.18L274.83 438.75L275.12 439.32L275.39 439.88L275.65 440.45L275.9 441.01L276.13 441.57L276.34 442.13L276.54 442.68L276.73 443.24L276.9 443.79L277.06 444.34L277.2 444.9L277.32 445.45L277.43 445.99L277.52 446.54L277.59 447.09L277.65 447.63L277.69 448.18L277.71 448.72L277.71 449.27L277.7 449.81L277.66 450.35L277.61 450.89L277.54 451.44L277.45 451.98L277.34 452.52L277.21 453.06L277.06 453.6L276.89 454.15L276.7 454.69L276.48 455.23L276.25 455.78L275.99 456.32L275.72 456.86L275.42 457.41L275.09 457.96L274.75 458.5L274.38 459.05L273.99 459.6L273.58 460.15L273.52 460.24L273.48 460.34L273.44 460.46L273.42 460.58L273.41 460.71L273.41 460.86L273.42 461.01L273.44 461.18L273.47 461.35L273.51 461.53L273.55 461.72L273.61 461.91L273.67 462.11L273.74 462.32L273.82 462.53L273.91 462.74L274 462.96L274.1 463.19L274.2 463.41L274.31 463.64L274.43 463.87L274.54 464.1L274.67 464.34L274.8 464.57L274.93 464.8L275.07 465.03L275.2 465.26L275.35 465.49L275.49 465.71L275.64 465.94L275.78 466.15L275.93 466.37L276.08 466.57L276.23 466.78L276.38 466.97L276.54 467.17L276.69 467.35L276.84 467.52L276.99 467.69L277.13 467.85L277.33 468.04L277.53 468.23L277.73 468.42L277.94 468.6L278.15 468.78L278.37 468.95L278.58 469.12L278.8 469.29L279.03 469.46L279.25 469.62L279.48 469.78L279.72 469.93L279.95 470.09L280.19 470.24L280.42 470.39L280.66 470.54L280.9 470.69L281.15 470.83L281.39 470.98L281.63 471.12L281.88 471.27L282.13 471.41L282.37 471.55L282.62 471.7L282.86 471.84L283.11 471.98L283.36 472.12L283.6 472.27L283.85 472.41L284.09 472.56L284.33 472.71L284.58 472.85L284.82 473L285.06 473.16L285.29 473.31L285.53 473.47L285.76 473.62L285.99 473.78L286.22 473.95L286.45 474.11L287.58 475L288.68 475.9L289.72 476.84L290.72 477.79L291.68 478.77L292.59 479.78L293.45 480.8L294.27 481.85L295.05 482.92L295.77 484.01L296.45 485.11L297.08 486.24L297.67 487.38L298.21 488.54L298.7 489.72L299.15 490.91L299.55 492.11L299.9 493.33L300.2 494.56L300.46 495.8L300.67 497.05L300.83 498.31L300.94 499.59L301 500.87L301.02 502.16L300.99 503.45L300.91 504.75L300.78 506.06L300.6 507.37L300.37 508.69L300.09 510.01L299.77 511.33L299.39 512.65L298.96 513.98L298.49 515.3L297.96 516.62L297.39 517.94L296.76 519.26L296.09 520.57L295.36 521.89L294.74 522.91L294.08 523.91L293.37 524.88L292.62 525.82L291.83 526.72L291 527.6L290.13 528.44L289.23 529.25L288.3 530.02L287.34 530.76L286.35 531.47L285.32 532.15L284.28 532.78L283.2 533.39L282.1 533.95L280.98 534.48L279.84 534.98L278.69 535.43L277.51 535.85L276.32 536.23L275.11 536.57L273.9 536.87L272.67 537.14L271.43 537.36L270.18 537.54L268.93 537.68L267.67 537.78L266.42 537.83L265.16 537.85L263.89 537.82L262.64 537.75L261.38 537.63L260.13 537.47L258.89 537.26L257.65 537.01L256.43 536.71L255.21 536.37L254.01 535.98L252.83 535.54L251.66 535.06L250.58 534.55L249.52 533.99L248.49 533.38L247.48 532.73L246.5 532.04L245.55 531.3L244.63 530.51L243.73 529.69L242.86 528.83L242.02 527.94L241.21 527L240.43 526.04L239.68 525.04L238.97 524.01L238.28 522.96L237.63 521.87L237.02 520.76L236.44 519.63L235.89 518.47L235.38 517.29L234.9 516.09L234.47 514.88L234.07 513.65L233.71 512.4L233.39 511.14L233.1 509.87L232.86 508.59L232.66 507.31L232.5 506.01L232.39 504.71L232.31 503.41L232.28 502.1L232.3 500.8L232.36 499.49L232.46 498.19L232.61 496.89L232.81 495.6L233.05 494.32L233.35 493.05L233.69 491.78L233.94 490.94L234.21 490.11L234.49 489.3L234.79 488.5L235.1 487.71L235.42 486.93L235.75 486.17L236.1 485.42L236.47 484.69L236.84 483.96L237.23 483.25L237.64 482.56L238.06 481.88L238.49 481.21L238.94 480.55L239.41 479.91L239.88 479.28L240.38 478.67L240.89 478.07L241.41 477.48L241.95 476.91L242.5 476.36L243.07 475.81L243.65 475.28L244.25 474.77L244.87 474.27L245.5 473.78L246.15 473.31L246.81 472.85L247.49 472.41L248.19 471.98L248.9 471.56L249.63 471.17L250.37 470.78L251.13 470.41L251.91 470.06L252.71 469.72L253.52 469.39L254.35 469.08L255.19 468.79L255.74 468.6L256.26 468.4L256.76 468.18L257.24 467.96L257.7 467.72L258.14 467.47L258.55 467.21L258.95 466.94L259.33 466.67L259.68 466.38L260.02 466.08L260.33 465.77L260.62 465.46L260.89 465.13L261.14 464.8L261.36 464.46L261.56 464.11L261.74 463.75L261.9 463.39L262.03 463.02L262.15 462.64L262.23 462.26L262.3 461.87L262.34 461.48L262.36 461.08L262.35 460.67L262.32 460.26L262.27 459.84L262.19 459.42L262.08 459L261.96 458.57L261.8 458.14L261.63 457.7L261.42 457.26L261.2 456.82L260.94 456.38L260.66 455.93L260.36 455.49L260.03 455.04L259.67 454.59L259.4 454.23L259.14 453.89L258.9 453.55L258.67 453.22L258.45 452.89L258.25 452.57L258.07 452.25L257.9 451.94L257.75 451.63L257.61 451.33L257.48 451.03L257.38 450.73L257.28 450.44L257.2 450.15L257.13 449.86L257.08 449.57L257.05 449.29L257.02 449.01L257.01 448.72L257.02 448.44L257.04 448.16L257.07 447.88L257.12 447.6L257.18 447.32L257.26 447.04L257.35 446.76L257.45 446.47L257.57 446.19L257.7 445.9L257.84 445.61L258 445.32L258.17 445.02L258.35 444.73L258.55 444.42L258.76 444.12L258.99 443.81L259.22 443.5L259.47 443.18L259.74 442.85L260.01 442.52L260.16 442.31L260.31 442.1L260.45 441.88L260.58 441.65L260.71 441.43L260.84 441.2L260.96 440.98L261.08 440.74L261.18 440.51L261.29 440.28L261.39 440.04L261.48 439.8L261.57 439.56L261.65 439.32L261.73 439.07L261.8 438.83L261.87 438.58L261.93 438.33L261.99 438.08L262.04 437.83L262.09 437.58L262.13 437.33L262.16 437.07L262.19 436.82L262.21 436.57L262.23 436.31L262.24 436.05L262.25 435.8L262.25 435.54L262.25 435.28L262.24 435.03L262.22 434.77L262.2 434.51L262.17 434.26L262.14 434L262.1 433.74L262.06 433.49L262.01 433.23L261.95 432.98L261.89 432.72L261.37 431.21L260.88 429.69L260.42 428.18L259.98 426.66L259.57 425.15L259.19 423.63L258.84 422.11L258.51 420.59L258.21 419.07L257.93 417.55L257.67 416.03L257.44 414.51L257.24 412.99L257.05 411.46L256.89 409.94L256.75 408.42L256.63 406.89L256.54 405.36L256.46 403.84L256.41 402.31L256.37 400.78L256.36 399.25L256.36 397.71L256.38 396.18L256.42 394.65L256.48 393.11L256.55 391.57L256.64 390.04L256.74 388.5L256.87 386.96L257 385.42L257.15 383.87L257.32 382.33L257.5 380.78L257.69 379.24L257.89 377.69L258.11 376.14L258.34 374.59L258.58 373.04L258.83 371.48L259.13 369.6L259.44 367.72L259.74 365.84L260.04 363.96L260.34 362.08L260.63 360.2L260.92 358.32L261.21 356.44L261.5 354.56L261.78 352.68L262.06 350.8L262.34 348.91L262.62 347.03L262.9 345.15L263.18 343.27L263.45 341.38L263.72 339.5L263.99 337.62L264.26 335.73L264.53 333.85L264.8 331.97L265.07 330.09L265.33 328.2L265.6 326.32L265.86 324.44L266.12 322.55L266.39 320.67L266.65 318.79L266.91 316.91L267.18 315.02L267.44 313.14L267.7 311.26L267.96 309.38L268.23 307.5L268.49 305.62L268.75 303.74L269.02 301.86L269.28 299.98L269.55 298.1L269.81 296.22L269.86 295.9L269.91 295.57L269.97 295.24L270.03 294.9L270.08 294.57L270.14 294.23L270.21 293.9L270.27 293.56L270.33 293.22L270.4 292.88L270.46 292.54L270.53 292.2L270.59 291.86L270.65 291.52L270.71 291.18L270.77 290.85L270.83 290.51L270.88 290.17L270.93 289.83L270.98 289.49L271.02 289.16L271.06 288.82L271.09 288.49L271.12 288.16L271.15 287.83L271.17 287.5L271.18 287.18L271.19 286.85L271.19 286.53L271.18 286.21L271.16 285.9L271.14 285.58L271.11 285.27L271.07 284.97L271.03 284.66L270.97 284.36L270.9 284.07L270.83 283.78L270.74 283.49L270.64 283.2L270.32 282.31L270.01 281.43L269.72 280.54L269.43 279.66L269.15 278.77L268.88 277.89L268.63 277.01L268.39 276.13L268.16 275.25L267.94 274.37L267.74 273.49L267.55 272.61L267.37 271.73L267.21 270.85L267.06 269.97L266.93 269.09L266.82 268.22L266.72 267.34L266.64 266.46L266.58 265.58L266.53 264.7L266.5 263.82L266.49 262.94L266.5 262.05L266.53 261.17L266.58 260.29L266.64 259.4L266.73 258.52L266.84 257.63L266.97 256.74L267.12 255.85L267.3 254.96L267.5 254.06L267.72 253.17L267.96 252.27L268.23 251.37L268.52 250.47L268.84 249.57L269.18 248.66L269.55 247.76L269.6 247.61L269.65 247.46L269.69 247.31L269.72 247.16L269.75 247L269.76 246.83L269.77 246.67L269.78 246.5L269.78 246.33L269.77 246.15L269.76 245.97L269.74 245.79L269.72 245.61L269.69 245.43L269.65 245.24L269.62 245.06L269.57 244.87L269.53 244.68L269.48 244.49L269.42 244.3L269.37 244.1L269.31 243.91L269.24 243.72L269.18 243.53L269.11 243.34L269.03 243.14L268.96 242.95L268.89 242.76L268.81 242.57L268.73 242.39L268.65 242.2L268.57 242.02L268.49 241.83L268.41 241.65L268.32 241.48L268.24 241.3L268.16 241.13L268.08 240.96L267.99 240.79L267.91 240.62L267.5 239.81L267.09 238.99L266.68 238.17L266.27 237.36L265.85 236.55L265.43 235.73L265.01 234.92L264.59 234.11L264.17 233.3L263.74 232.48L263.32 231.67L262.9 230.86L262.47 230.05L262.05 229.24L261.62 228.43L261.2 227.62L260.77 226.81L260.35 226L259.92 225.19L259.5 224.38L259.08 223.57L258.66 222.76L258.24 221.95L257.82 221.13L257.41 220.32L256.99 219.5L256.58 218.69L256.17 217.87L255.76 217.06L255.35 216.24L254.95 215.42L254.55 214.6L254.15 213.78L253.76 212.95L253.37 212.13L252.98 211.3L252.6 210.47L252.22 209.65L251.84 208.81L251.47 207.98L251.34 207.68L251.21 207.36L251.08 207.04L250.96 206.71L250.84 206.38L250.72 206.04L250.61 205.69L250.5 205.34L250.4 204.98L250.3 204.62L250.2 204.26L250.11 203.89L250.02 203.52L249.94 203.15L249.87 202.78L249.8 202.4L249.73 202.03L249.68 201.65L249.63 201.28L249.58 200.9L249.55 200.53L249.52 200.16L249.5 199.79L249.48 199.43L249.47 199.07L249.48 198.71L249.49 198.36L249.51 198.01L249.53 197.67L249.57 197.33L249.62 197L249.67 196.68L249.74 196.36L249.81 196.06L249.9 195.76L250 195.47L250.1 195.19L250.22 194.92L250.35 194.66L250.49 194.42L252.06 191.76L253.56 189.09L255 186.4L256.37 183.7L257.67 180.99L258.91 178.26L260.1 175.52L261.22 172.77L262.28 170L263.29 167.22L264.25 164.44L265.16 161.64L266.01 158.82L266.81 156L267.57 153.17L268.28 150.33L268.95 147.48L269.58 144.61L270.16 141.75L270.71 138.87L271.22 135.98L271.69 133.09L272.14 130.19L272.54 127.28L272.92 124.37L273.27 121.45L273.59 118.52L273.89 115.59L274.17 112.65L274.42 109.71L274.65 106.76L274.86 103.81L275.06 100.86L275.24 97.9L275.41 94.95L275.56 91.98L275.71 89.02L275.84 86.05L275.97 83.09L276.1 80.12L276.13 79.21L276.17 78.3L276.2 77.39L276.22 76.48L276.24 75.57L276.26 74.66L276.28 73.75L276.29 72.84L276.3 71.93L276.31 71.02L276.32 70.11L276.32 69.2L276.32 68.29L276.32 67.38L276.32 66.47L276.32 65.56L276.31 64.64L276.31 63.73L276.3 62.82L276.29 61.91L276.28 61L276.27 60.09L276.26 59.18L276.24 58.27L276.23 57.35L276.22 56.44L276.21 55.53L276.19 54.62L276.18 53.71L276.17 52.8L276.16 51.89L276.15 50.98L276.14 50.07L276.13 49.15L276.12 48.24L276.11 47.33L276.11 46.42L276.1 45.51L276.1 44.6L276.1 43.69L282.93 43.58L282.95 44.36L282.97 45.14ZM273.2 491.49L271.75 491.49L270.35 491.48L269 491.48L267.74 491.47L266.59 491.47L265.55 491.49L264.65 491.52L263.91 491.57L263.35 491.65L262.98 491.75L262.83 491.89L262.64 493.45L262.45 495.01L262.29 496.56L262.13 498.12L261.99 499.68L261.87 501.24L261.76 502.8L261.66 504.37L261.58 505.93L261.52 507.5L261.46 509.06L261.43 510.63L261.4 512.2L262.37 512.25L263.41 512.32L264.52 512.42L265.65 512.52L266.78 512.62L267.89 512.72L268.95 512.79L269.93 512.85L270.8 512.87L271.54 512.85L272.12 512.78L272.52 512.65L272.69 512.46L273.12 511.05L273.49 509.62L273.82 508.17L274.11 506.69L274.38 505.17L274.61 503.62L274.84 502.03L275.04 500.4L275.25 498.72L275.46 496.98L275.67 495.2L275.9 493.35L276.15 491.44L274.67 491.47L273.2 491.49ZM276.49 154.85L275.94 156.2L275.39 157.54L274.83 158.89L274.28 160.23L273.73 161.57L273.17 162.91L272.61 164.25L272.06 165.59L271.5 166.93L270.95 168.26L270.39 169.6L269.84 170.94L269.28 172.28L268.73 173.61L268.18 174.95L267.62 176.28L267.07 177.62L266.53 178.96L265.98 180.29L265.44 181.63L264.89 182.97L264.35 184.31L263.81 185.65L263.28 186.99L262.75 188.33L262.22 189.67L261.69 191.01L261.17 192.36L260.65 193.7L260.41 194.44L260.22 195.23L260.09 196.07L260.01 196.95L259.99 197.87L260.01 198.83L260.07 199.81L260.19 200.82L260.34 201.84L260.54 202.88L260.77 203.93L261.05 204.98L261.35 206.03L261.69 207.07L262.07 208.1L262.47 209.11L262.89 210.1L263.35 211.06L263.82 211.98L264.32 212.87L264.84 213.71L265.38 214.51L265.93 215.25L266.49 215.93L267.07 216.55L267.65 217.1L268.25 217.58L268.85 217.97L269.45 218.28L270.06 218.5L270.66 218.63L271.12 218.68L271.58 218.73L272.07 218.77L272.56 218.8L273.06 218.82L273.57 218.83L274.08 218.83L274.6 218.83L275.12 218.82L275.65 218.79L276.17 218.76L276.7 218.72L277.22 218.67L277.74 218.6L278.26 218.53L278.77 218.45L279.27 218.35L279.76 218.25L280.24 218.13L280.71 218L281.16 217.86L281.6 217.71L282.03 217.55L282.43 217.37L282.82 217.18L283.19 216.98L283.53 216.77L283.85 216.54L284.15 216.3L284.42 216.04L284.66 215.77L285.14 215.18L285.64 214.6L286.16 214.01L286.69 213.42L287.23 212.83L287.77 212.24L288.31 211.64L288.86 211.04L289.4 210.43L289.93 209.82L290.46 209.2L290.97 208.57L291.46 207.93L291.94 207.28L292.39 206.62L292.82 205.95L293.22 205.27L293.59 204.58L293.92 203.87L294.21 203.14L294.47 202.4L294.68 201.65L294.84 200.87L294.95 200.08L295.01 199.27L295.01 198.44L294.95 197.58L294.83 196.71L294.65 195.81L294.39 194.89L294.07 193.95L293.56 192.6L293.05 191.25L292.54 189.9L292.02 188.56L291.5 187.21L290.98 185.87L290.46 184.53L289.94 183.18L289.41 181.84L288.89 180.5L288.36 179.16L287.83 177.81L287.29 176.47L286.76 175.13L286.23 173.79L285.69 172.44L285.15 171.1L284.62 169.76L284.08 168.41L283.54 167.06L283 165.72L282.46 164.37L281.92 163.02L281.38 161.67L280.83 160.31L280.29 158.96L279.75 157.6L279.21 156.24L278.67 154.88L278.13 153.52L277.58 152.16L277.04 153.51L276.49 154.85Z" id="dZohIkX6o"></path></defs><g><g><g><use xlink:href="#dZohIkX6o" opacity="1" fill="#000000" fill-opacity="1"></use><g><use xlink:href="#dZohIkX6o" opacity="1" fill-opacity="0" stroke="#000000" stroke-width="1" stroke-opacity="0"></use></g></g></g></g></svg>